<svg width="40" height="40" viewBox="0 0 40 40" fill="none" xmlns="http://www.w3.org/2000/svg">
<g clip-path="url(#clip0_3035_90)">
<path d="M40 20.1211C40 30.1024 32.6765 38.3773 23.1167 39.8788V25.94H27.7645L28.6489 20.1741H23.1167V16.4325C23.1167 14.8546 23.8897 13.3173 26.3675 13.3173H28.8827V8.40846C28.8827 8.40846 26.5997 8.01887 24.4172 8.01887C19.8613 8.01887 16.8833 10.7803 16.8833 15.7795V20.1741H11.8186V25.94H16.8833V39.8788C7.32507 38.3757 0 30.1016 0 20.1211C0 9.07543 8.95434 0.121094 20 0.121094C31.0457 0.121094 40 9.07543 40 20.1211Z" fill="white"/>
</g>
<defs>
<clipPath id="clip0_3035_90">
<rect width="40" height="40" fill="white"/>
</clipPath>
</defs>
</svg>
