<svg width="40" height="40" viewBox="0 0 40 40" fill="none" xmlns="http://www.w3.org/2000/svg">
<g clip-path="url(#clip0_3035_82)">
<path d="M20 3.60333C25.34 3.60333 25.9733 3.62333 28.0817 3.72C30.2617 3.82 32.5067 4.31667 34.095 5.905C35.6983 7.50833 36.18 9.73167 36.28 11.9183C36.3767 14.0267 36.3967 14.66 36.3967 20C36.3967 25.34 36.3767 25.9733 36.28 28.0817C36.1817 30.25 35.6733 32.5167 34.095 34.095C32.4917 35.6983 30.27 36.18 28.0817 36.28C25.9733 36.3767 25.34 36.3967 20 36.3967C14.66 36.3967 14.0267 36.3767 11.9183 36.28C9.76667 36.1817 7.47 35.6617 5.905 34.095C4.31 32.5 3.82 30.255 3.72 28.0817C3.62333 25.9733 3.60333 25.34 3.60333 20C3.60333 14.66 3.62333 14.0267 3.72 11.9183C3.81833 9.75833 4.33167 7.47833 5.905 5.905C7.505 4.305 9.73667 3.82 11.9183 3.72C14.0267 3.62333 14.66 3.60333 20 3.60333ZM20 0C14.5683 0 13.8867 0.0233333 11.7533 0.12C8.66167 0.261667 5.59167 1.12167 3.35667 3.35667C1.11333 5.6 0.261667 8.66333 0.12 11.7533C0.0233333 13.8867 0 14.5683 0 20C0 25.4317 0.0233333 26.1133 0.12 28.2467C0.261667 31.335 1.125 34.4133 3.35667 36.6433C5.59833 38.885 8.66667 39.7383 11.7533 39.88C13.8867 39.9767 14.5683 40 20 40C25.4317 40 26.1133 39.9767 28.2467 39.88C31.3367 39.7383 34.41 38.8767 36.6433 36.6433C38.8883 34.3983 39.7383 31.3367 39.88 28.2467C39.9767 26.1133 40 25.4317 40 20C40 14.5683 39.9767 13.8867 39.88 11.7533C39.7383 8.66167 38.8767 5.59 36.6433 3.35667C34.405 1.11833 31.3283 0.26 28.2467 0.12C26.1133 0.0233333 25.4317 0 20 0Z" fill="white"/>
<path d="M20.0005 9.72949C14.3288 9.72949 9.73047 14.3278 9.73047 19.9995C9.73047 25.6712 14.3288 30.2695 20.0005 30.2695C25.6721 30.2695 30.2705 25.6712 30.2705 19.9995C30.2705 14.3278 25.6721 9.72949 20.0005 9.72949ZM20.0005 26.6662C16.3188 26.6662 13.3338 23.6812 13.3338 19.9995C13.3338 16.3178 16.3188 13.3328 20.0005 13.3328C23.6821 13.3328 26.6671 16.3178 26.6671 19.9995C26.6671 23.6812 23.6821 26.6662 20.0005 26.6662Z" fill="white"/>
<path d="M30.6764 11.7229C32.0019 11.7229 33.0764 10.6483 33.0764 9.32285C33.0764 7.99737 32.0019 6.92285 30.6764 6.92285C29.3509 6.92285 28.2764 7.99737 28.2764 9.32285C28.2764 10.6483 29.3509 11.7229 30.6764 11.7229Z" fill="white"/>
</g>
<defs>
<clipPath id="clip0_3035_82">
<rect width="40" height="40" fill="white"/>
</clipPath>
</defs>
</svg>
