<svg width="40" height="40" viewBox="0 0 40 40" fill="none" xmlns="http://www.w3.org/2000/svg">
<g clip-path="url(#clip0_3035_75)">
<path d="M0.610352 39.8389H10.9675V12.6035H0.610352V39.8389ZM2.9541 14.9473H8.62371V37.4951H2.9541V14.9473Z" fill="white"/>
<path d="M5.78898 0.161133C2.59687 0.161133 0 2.75809 0 5.95012C0 9.14215 2.59687 11.7392 5.78898 11.7392C8.98109 11.7392 11.578 9.14223 11.578 5.95012C11.578 2.75801 8.98102 0.161133 5.78898 0.161133ZM2.34375 5.95012C2.34375 4.05043 3.88922 2.50488 5.78898 2.50488C7.68875 2.50488 9.2343 4.05035 9.2343 5.95012C9.2343 7.84988 7.68875 9.39543 5.78898 9.39543C3.88922 9.39543 2.34375 7.8498 2.34375 5.95012Z" fill="white"/>
<path d="M39.975 21.1548C39.6064 15.8536 35.1845 11.7686 29.7024 11.7686C27.2503 11.7686 24.9355 12.6211 23.1117 14.1337V12.6025H13.1875V39.8379H23.5447V24.9422C23.5447 23.2635 24.9104 21.8977 26.5892 21.8977C28.2679 21.8977 29.6337 23.2635 29.6337 24.9429L29.6437 39.8379H40.0001V21.18L39.975 21.1548ZM21.2009 37.4943H15.5312V14.9463H20.7679V18.2937L22.6433 18.3045L22.9917 17.7636C24.4644 15.4772 26.973 14.1124 29.7024 14.1124C34.0646 14.1124 37.5573 17.4407 37.654 21.6893L37.6563 37.4943H31.9859L31.9774 24.9422C31.9774 21.9711 29.5602 19.5539 26.5892 19.5539C23.6181 19.5539 21.2009 21.9711 21.2009 24.9422V37.4943Z" fill="white"/>
</g>
<defs>
<clipPath id="clip0_3035_75">
<rect width="40" height="40" fill="white"/>
</clipPath>
</defs>
</svg>
