<svg width="40" height="40" viewBox="0 0 40 40" fill="none" xmlns="http://www.w3.org/2000/svg">
<g clip-path="url(#clip0_3035_93)">
<path d="M15.2491 39.9998C12.3374 39.9998 9.59126 39.0708 7.30767 37.313C6.88111 36.9849 6.47095 36.6263 6.08814 36.2482C3.42251 33.6138 2.08111 30.1052 2.31157 26.3685C2.48579 23.5443 3.62329 20.8216 5.51626 18.7021C8.02329 15.8951 11.4795 14.349 15.2499 14.349C15.8975 14.349 16.5514 14.3974 17.1952 14.4927L18.1952 14.6412V23.5154L16.6553 23.0068C16.2069 22.8583 15.7405 22.7833 15.2686 22.7833C14.0764 22.7833 12.96 23.2505 12.1249 24.0982C11.2936 24.9419 10.846 26.0576 10.8631 27.2412C10.8858 28.7669 11.6897 30.1498 13.0131 30.9419C13.6225 31.306 14.3163 31.5193 15.021 31.5583C15.5772 31.5888 16.1264 31.5162 16.6545 31.3419C18.46 30.7458 19.6733 29.0708 19.6733 27.1748L19.6811 17.9716V-0.000244141H28.1624L28.1725 1.16069C28.1772 1.68647 28.2311 2.21226 28.3327 2.72163C28.7311 4.72476 29.8545 6.50991 31.496 7.74741C32.953 8.84663 34.692 9.4271 36.5233 9.4271C36.5663 9.4271 36.5663 9.4271 36.9577 9.45444L38.0475 9.53101V16.7185V17.8904L37.6569 17.8896H36.878C36.8717 17.8896 36.8655 17.8896 36.8585 17.8896H36.4842C36.4827 17.8896 36.4803 17.8896 36.478 17.8896C34.2194 17.8896 32.103 17.4591 30.0053 16.574C29.3803 16.3099 28.7717 16.0084 28.1842 15.6716L28.2108 27.2193C28.1967 30.6349 26.8467 33.8388 24.41 36.2474C22.4327 38.2013 19.9374 39.4498 17.1936 39.856C16.5538 39.9513 15.8999 39.9998 15.2491 39.9998ZM15.2491 16.6927C12.1561 16.6927 9.32017 17.9607 7.26392 20.263C5.72017 21.9919 4.79204 24.2115 4.64986 26.5123C4.46236 29.563 5.55767 32.4287 7.73501 34.5802C8.04986 34.8912 8.38658 35.1857 8.73658 35.4552C10.6069 36.8951 12.8592 37.656 15.2491 37.656C15.785 37.656 16.3233 37.6162 16.8506 37.538C19.0983 37.2052 21.1428 36.1826 22.7631 34.581C24.7538 32.6138 25.8561 29.999 25.8678 27.2177L25.8311 11.0935L27.7241 12.5537C28.7014 13.3076 29.7764 13.9341 30.9178 14.4162C32.478 15.0748 34.0506 15.4404 35.703 15.5271V11.7419C33.6608 11.5888 31.7319 10.863 30.0842 9.62007C27.9827 8.03569 26.5444 5.74819 26.0335 3.18022C25.9788 2.90444 25.9342 2.62554 25.9014 2.34429H22.0241V17.9724L22.0163 27.1755C22.0163 30.0841 20.1569 32.6529 17.3889 33.5669C16.5819 33.8334 15.742 33.9443 14.892 33.8982C13.8092 33.8388 12.7436 33.5115 11.8092 32.9529C9.78345 31.7412 8.55298 29.6185 8.51861 27.2755C8.49204 25.4599 9.17876 23.7474 10.4538 22.4529C11.7327 21.1544 13.442 20.4396 15.267 20.4396C15.4624 20.4396 15.6561 20.4482 15.8499 20.4646V16.7091C15.6499 16.6982 15.4491 16.6927 15.2491 16.6927Z" fill="white"/>
</g>
<defs>
<clipPath id="clip0_3035_93">
<rect width="40" height="40" fill="white"/>
</clipPath>
</defs>
</svg>
