<svg width="40" height="40" viewBox="0 0 40 40" fill="none" xmlns="http://www.w3.org/2000/svg">
<g clip-path="url(#clip0_3035_87)">
<path d="M37.8992 10.7412L37.9008 10.7468C38.2865 12.1558 38.4896 14.4361 38.5887 16.4629C38.6373 17.4558 38.6596 18.3539 38.6697 19.0039C38.6748 19.3286 38.6768 19.5906 38.6776 19.7707C38.6779 19.8607 38.678 19.9301 38.678 19.9767L38.6779 20.0289L38.6778 20.0416L38.6778 20.0444L38.6778 20.0449V20.0515V20.0516V20.0521L38.6778 20.055L38.6778 20.0676L38.6776 20.1197C38.6774 20.1661 38.677 20.2353 38.6762 20.325C38.6747 20.5044 38.6715 20.7654 38.6652 21.0888C38.6525 21.7362 38.6272 22.631 38.5766 23.6207C38.4735 25.6368 38.2711 27.9142 37.8987 29.332C37.5592 30.5878 36.5659 31.5812 35.3102 31.9204C34.6618 32.0904 33.4107 32.2392 31.7899 32.3556C30.2024 32.4696 28.3648 32.5461 26.6127 32.5974C24.8628 32.6486 23.2086 32.6742 21.9912 32.687C21.3828 32.6934 20.8841 32.6966 20.5379 32.6982C20.3648 32.699 20.2299 32.6994 20.1384 32.6996L20.0345 32.6998L20.0083 32.6998L20.0019 32.6998H20.0003H20L19.9999 34.0219L19.9999 32.6998H19.9995H19.998L19.9916 32.6998L19.9655 32.6998L19.8619 32.6996C19.7707 32.6994 19.6362 32.699 19.4635 32.6982C19.1182 32.6965 18.6208 32.6932 18.0138 32.6865C16.7992 32.6732 15.1484 32.6466 13.4009 32.5934C11.6513 32.5401 9.81539 32.4605 8.22737 32.3421C6.60276 32.2209 5.34798 32.066 4.69496 31.8892L4.6931 31.8887C3.43524 31.55 2.44021 30.5552 2.10076 29.2978C1.72912 27.8988 1.52646 25.6228 1.42327 23.6003C1.37268 22.6085 1.34733 21.7106 1.33465 21.0606C1.32832 20.7358 1.32516 20.4737 1.32359 20.2935C1.32281 20.2034 1.32242 20.1338 1.32222 20.0872L1.32206 20.0348L1.32204 20.022L1.32203 20.0192L1.32203 20.0187V20.0187V20.0186V20.0185L1.32203 20.0181L1.32204 20.0152L1.32206 20.0026L1.32222 19.9505C1.32242 19.9041 1.32281 19.8348 1.32359 19.7452C1.32516 19.5658 1.32832 19.3048 1.33465 18.9814C1.34732 18.3339 1.37267 17.4391 1.42327 16.4493C1.52634 14.4331 1.7288 12.1555 2.10119 10.7379C2.44123 9.47952 3.46998 8.45417 4.69231 8.11607C5.34163 7.94639 6.59136 7.79782 8.20965 7.68163C9.79708 7.56767 11.6347 7.49109 13.3868 7.43985C15.1368 7.38866 16.791 7.36303 18.0083 7.35022C18.6167 7.34381 19.1154 7.34061 19.4616 7.33901C19.6347 7.33821 19.7697 7.33781 19.8611 7.33761L19.965 7.33744L19.9912 7.33742L19.9977 7.33742L19.9992 7.33741H19.9996L19.9996 6.01538L19.9997 7.33741H20L20.0015 7.33742L20.008 7.33742L20.0342 7.33744L20.138 7.33762C20.2294 7.33783 20.3643 7.33824 20.5374 7.33907C20.8835 7.34073 21.3821 7.34406 21.9904 7.35072C23.2076 7.36404 24.8615 7.39068 26.6111 7.44388C28.3628 7.49715 30.1997 7.57673 31.7861 7.69514C33.4102 7.81635 34.6587 7.97124 35.3015 8.14716L35.3067 8.14855C36.5651 8.48749 37.5606 9.48289 37.8992 10.7412Z" stroke="white" stroke-width="2.64407"/>
<path d="M16.0127 26.0148L26.4243 20.0182L16.0127 14.0215V26.0148Z" fill="white"/>
</g>
<defs>
<clipPath id="clip0_3035_87">
<rect width="40" height="40" fill="white"/>
</clipPath>
</defs>
</svg>
